<?xml version="1.0" encoding="utf-8"?>
<svg xmlns="http://www.w3.org/2000/svg" xmlns:xlink="http://www.w3.org/1999/xlink" style="margin: auto; background: rgba(255, 255, 255, 0); display: block; shape-rendering: auto;" width="200px" height="200px" viewBox="0 0 100 100" preserveAspectRatio="xMidYMid">
<g transform="rotate(0 50 50)">
  <rect x="47.5" y="27.5" rx="1.5" ry="1.5" width="5" height="5" fill="#1f5242">
    <animate attributeName="opacity" values="1;0" keyTimes="0;1" dur="1.25s" begin="-1.125s" repeatCount="indefinite"></animate>
  </rect>
</g><g transform="rotate(36 50 50)">
  <rect x="47.5" y="27.5" rx="1.5" ry="1.5" width="5" height="5" fill="#1f5242">
    <animate attributeName="opacity" values="1;0" keyTimes="0;1" dur="1.25s" begin="-1s" repeatCount="indefinite"></animate>
  </rect>
</g><g transform="rotate(72 50 50)">
  <rect x="47.5" y="27.5" rx="1.5" ry="1.5" width="5" height="5" fill="#1f5242">
    <animate attributeName="opacity" values="1;0" keyTimes="0;1" dur="1.25s" begin="-0.875s" repeatCount="indefinite"></animate>
  </rect>
</g><g transform="rotate(108 50 50)">
  <rect x="47.5" y="27.5" rx="1.5" ry="1.5" width="5" height="5" fill="#1f5242">
    <animate attributeName="opacity" values="1;0" keyTimes="0;1" dur="1.25s" begin="-0.75s" repeatCount="indefinite"></animate>
  </rect>
</g><g transform="rotate(144 50 50)">
  <rect x="47.5" y="27.5" rx="1.5" ry="1.5" width="5" height="5" fill="#1f5242">
    <animate attributeName="opacity" values="1;0" keyTimes="0;1" dur="1.25s" begin="-0.625s" repeatCount="indefinite"></animate>
  </rect>
</g><g transform="rotate(180 50 50)">
  <rect x="47.5" y="27.5" rx="1.5" ry="1.5" width="5" height="5" fill="#1f5242">
    <animate attributeName="opacity" values="1;0" keyTimes="0;1" dur="1.25s" begin="-0.5s" repeatCount="indefinite"></animate>
  </rect>
</g><g transform="rotate(216 50 50)">
  <rect x="47.5" y="27.5" rx="1.5" ry="1.5" width="5" height="5" fill="#1f5242">
    <animate attributeName="opacity" values="1;0" keyTimes="0;1" dur="1.25s" begin="-0.375s" repeatCount="indefinite"></animate>
  </rect>
</g><g transform="rotate(252 50 50)">
  <rect x="47.5" y="27.5" rx="1.5" ry="1.5" width="5" height="5" fill="#1f5242">
    <animate attributeName="opacity" values="1;0" keyTimes="0;1" dur="1.25s" begin="-0.25s" repeatCount="indefinite"></animate>
  </rect>
</g><g transform="rotate(288 50 50)">
  <rect x="47.5" y="27.5" rx="1.5" ry="1.5" width="5" height="5" fill="#1f5242">
    <animate attributeName="opacity" values="1;0" keyTimes="0;1" dur="1.25s" begin="-0.125s" repeatCount="indefinite"></animate>
  </rect>
</g><g transform="rotate(324 50 50)">
  <rect x="47.5" y="27.5" rx="1.5" ry="1.5" width="5" height="5" fill="#1f5242">
    <animate attributeName="opacity" values="1;0" keyTimes="0;1" dur="1.25s" begin="0s" repeatCount="indefinite"></animate>
  </rect>
</g>
<!-- [ldio] generated by https://loading.io/ --></svg>